<svg width="44" height="44" viewBox="0 0 44 44" fill="none" xmlns="http://www.w3.org/2000/svg">
<path d="M42 23.8018C41.6497 27.5925 40.227 31.2051 37.8985 34.2168C35.57 37.2284 32.4319 39.5147 28.8514 40.808C25.271 42.1013 21.3963 42.3481 17.6806 41.5196C13.965 40.6911 10.5622 38.8215 7.87032 36.1297C5.17846 33.4378 3.3089 30.035 2.4804 26.3194C1.65191 22.6037 1.89874 18.729 3.19203 15.1486C4.48531 11.5681 6.77156 8.43001 9.78324 6.10149C12.7949 3.77296 16.4075 2.35031 20.1982 2C17.9788 5.00252 16.9109 8.70188 17.1885 12.4253C17.4662 16.1486 19.0711 19.6487 21.7112 22.2888C24.3513 24.9289 27.8514 26.5338 31.5747 26.8115C35.2981 27.0891 38.9975 26.0212 42 23.8018Z" stroke="#808080" stroke-width="4" stroke-linecap="round" stroke-linejoin="round"/>
</svg>
