<svg width="41" height="41" viewBox="0 0 41 41" fill="none" xmlns="http://www.w3.org/2000/svg">
<path d="M20.3333 25.3334C23.0947 25.3334 25.3333 23.0948 25.3333 20.3334C25.3333 17.572 23.0947 15.3334 20.3333 15.3334C17.5719 15.3334 15.3333 17.572 15.3333 20.3334C15.3333 23.0948 17.5719 25.3334 20.3333 25.3334Z" stroke="#808080" stroke-width="4" stroke-linecap="round" stroke-linejoin="round"/>
<path d="M32.6667 25.3333C32.4448 25.836 32.3786 26.3937 32.4767 26.9343C32.5747 27.475 32.8324 27.9739 33.2167 28.3667L33.3167 28.4667C33.6266 28.7762 33.8724 29.1439 34.0402 29.5485C34.2079 29.9532 34.2943 30.3869 34.2943 30.825C34.2943 31.263 34.2079 31.6968 34.0402 32.1015C33.8724 32.5061 33.6266 32.8738 33.3167 33.1833C33.0071 33.4933 32.6395 33.7391 32.2348 33.9069C31.8301 34.0746 31.3964 34.161 30.9583 34.161C30.5203 34.161 30.0865 34.0746 29.6819 33.9069C29.2772 33.7391 28.9096 33.4933 28.6 33.1833L28.5 33.0833C28.1072 32.6991 27.6083 32.4414 27.0676 32.3433C26.527 32.2453 25.9694 32.3115 25.4667 32.5333C24.9737 32.7446 24.5533 33.0954 24.2572 33.5426C23.9611 33.9897 23.8021 34.5137 23.8 35.05V35.3333C23.8 36.2174 23.4488 37.0652 22.8237 37.6904C22.1986 38.3155 21.3507 38.6667 20.4667 38.6667C19.5826 38.6667 18.7348 38.3155 18.1096 37.6904C17.4845 37.0652 17.1333 36.2174 17.1333 35.3333V35.1833C17.1204 34.6317 16.9419 34.0967 16.6208 33.6478C16.2998 33.199 15.8512 32.8571 15.3333 32.6667C14.8306 32.4448 14.273 32.3786 13.7324 32.4767C13.1917 32.5747 12.6928 32.8324 12.3 33.2167L12.2 33.3167C11.8904 33.6266 11.5228 33.8724 11.1181 34.0402C10.7135 34.2079 10.2797 34.2943 9.84167 34.2943C9.40361 34.2943 8.96986 34.2079 8.5652 34.0402C8.16054 33.8724 7.79291 33.6266 7.48333 33.3167C7.17341 33.0071 6.92755 32.6395 6.7598 32.2348C6.59205 31.8301 6.50571 31.3964 6.50571 30.9583C6.50571 30.5203 6.59205 30.0865 6.7598 29.6819C6.92755 29.2772 7.17341 28.9096 7.48333 28.6L7.58333 28.5C7.96756 28.1072 8.22531 27.6083 8.32334 27.0676C8.42137 26.527 8.35519 25.9694 8.13333 25.4667C7.92206 24.9737 7.57126 24.5533 7.12411 24.2572C6.67696 23.9611 6.15298 23.8021 5.61667 23.8H5.33333C4.44928 23.8 3.60143 23.4488 2.97631 22.8237C2.35119 22.1986 2 21.3507 2 20.4667C2 19.5826 2.35119 18.7348 2.97631 18.1096C3.60143 17.4845 4.44928 17.1333 5.33333 17.1333H5.48333C6.03499 17.1204 6.57001 16.9419 7.01883 16.6208C7.46766 16.2998 7.80953 15.8512 8 15.3333C8.22186 14.8306 8.28804 14.273 8.19001 13.7324C8.09198 13.1917 7.83423 12.6928 7.45 12.3L7.35 12.2C7.04008 11.8904 6.79421 11.5228 6.62647 11.1181C6.45872 10.7135 6.37238 10.2797 6.37238 9.84167C6.37238 9.40361 6.45872 8.96986 6.62647 8.5652C6.79421 8.16054 7.04008 7.79291 7.35 7.48333C7.65958 7.17341 8.0272 6.92755 8.43187 6.7598C8.83653 6.59205 9.27028 6.50571 9.70833 6.50571C10.1464 6.50571 10.5801 6.59205 10.9848 6.7598C11.3895 6.92755 11.7571 7.17341 12.0667 7.48333L12.1667 7.58333C12.5595 7.96756 13.0584 8.22531 13.599 8.32334C14.1397 8.42137 14.6973 8.35519 15.2 8.13333H15.3333C15.8263 7.92206 16.2467 7.57126 16.5428 7.12411C16.8389 6.67696 16.9979 6.15298 17 5.61667V5.33333C17 4.44928 17.3512 3.60143 17.9763 2.97631C18.6014 2.35119 19.4493 2 20.3333 2C21.2174 2 22.0652 2.35119 22.6904 2.97631C23.3155 3.60143 23.6667 4.44928 23.6667 5.33333V5.48333C23.6688 6.01964 23.8277 6.54363 24.1238 6.99078C24.42 7.43793 24.8404 7.78873 25.3333 8C25.836 8.22186 26.3937 8.28804 26.9343 8.19001C27.475 8.09198 27.9739 7.83423 28.3667 7.45L28.4667 7.35C28.7762 7.04008 29.1439 6.79421 29.5485 6.62647C29.9532 6.45872 30.3869 6.37238 30.825 6.37238C31.263 6.37238 31.6968 6.45872 32.1015 6.62647C32.5061 6.79421 32.8738 7.04008 33.1833 7.35C33.4933 7.65958 33.7391 8.0272 33.9069 8.43187C34.0746 8.83653 34.161 9.27028 34.161 9.70833C34.161 10.1464 34.0746 10.5801 33.9069 10.9848C33.7391 11.3895 33.4933 11.7571 33.1833 12.0667L33.0833 12.1667C32.6991 12.5595 32.4414 13.0584 32.3433 13.599C32.2453 14.1397 32.3115 14.6973 32.5333 15.2V15.3333C32.7446 15.8263 33.0954 16.2467 33.5426 16.5428C33.9897 16.8389 34.5137 16.9979 35.05 17H35.3333C36.2174 17 37.0652 17.3512 37.6904 17.9763C38.3155 18.6014 38.6667 19.4493 38.6667 20.3333C38.6667 21.2174 38.3155 22.0652 37.6904 22.6904C37.0652 23.3155 36.2174 23.6667 35.3333 23.6667H35.1833C34.647 23.6688 34.123 23.8277 33.6759 24.1238C33.2287 24.42 32.8779 24.8404 32.6667 25.3333Z" stroke="#373737" stroke-width="4" stroke-linecap="round" stroke-linejoin="round"/>
</svg>
